
********Wrong.Side.Of.Town.2010.x264.AC3(5.1)Multi_Sub.mkv.Zen_Bud*********

Format                           : Matroska
File size                        : 950 MiB
Duration                         : 1h 21mn
Overall bit rate                 : 1 621 Kbps
Writing application              : HandBrake svn3510
Writing library                  : libmkv 0.6.4.1

Video

Format                           : AVC
Duration                         : 1h 21mn
Bit rate                         : 1 140 Kbps
Width                            : 720 pixels
Height                           : 554 pixels
Display aspect ratio             : 16:9
Stream size                      : 668 MiB (70%)
Writing library                  : x264 core 104

Audio
Format                           : AC-3
Duration                         : 1h 21mn
Bit rate                         : 448 Kbps
Channel(s)                       : 6 channels
Channel positions                : Front: L C R, Side: L R, LFE
Sampling rate                    : 48.0 KHz
Bit depth                        : 16 bits
Stream size                      : 263 MiB (28%)
Language                         : English

Text #1
Language                         : Swedish

Text #2
Language                         : Norwegian

Text #3
Language                         : Finnish

Menu
00:00:00.000                     : Chapter  1
00:06:46.560                     : Chapter  2


